<svg width="9535" height="8004" viewBox="0 0 9535 8004" fill="none" xmlns="http://www.w3.org/2000/svg">
<path d="M5046.94 33.7395C4832.46 -16.4061 4491.69 -9.7899 4286.59 47.8266L3504 268.61L2721.42 489.392L1156.25 930.958C951.31 988.575 958.092 1076.49 1172.46 1126.47L4431.84 1887.94C4645.47 1937.79 4986.15 1931.34 5191.09 1873.55L5973.75 1652.76L6756.42 1431.97L7539.09 1211.18L8321.76 990.394C8526.7 932.778 8519.92 845.057 8306.38 795.215L5046.94 33.7395Z" fill="#5B3ADF" fill-opacity="0.7"/>
<path d="M4601.1 7396.14C4599.78 7501.4 4580.92 7596.92 4548.06 7679.35C4515.53 7761.47 4468.69 7830.83 4411.57 7883.95C4354.45 7936.94 4286.99 7974.05 4212.26 7991.74C4137.85 8009.47 4056.33 8007.95 3971.23 7984.27L597.385 7049.34C518.1 7027.32 442.426 6986.1 373.645 6930.14C305.112 6874.37 242.974 6804.02 190.899 6723.57C138.824 6643.43 96.4515 6553.4 67.3402 6458.37C38.2013 6363.18 21.3848 6262.7 21.054 6161.72L0.0198415 1963.98C-0.64178 1860.02 15.265 1764.34 44.459 1680.58C73.4325 1596.83 115.639 1524.5 168.21 1467.38C220.782 1410.26 283.416 1368.38 353.273 1345.03C423.294 1321.85 500.429 1317.21 581.451 1334.91L4030.61 2086.3C4117.92 2105.18 4200.87 2145.57 4275.94 2202C4351.34 2258.62 4419.29 2331.62 4476 2415.9C4532.62 2499.98 4578.38 2595.5 4609.18 2696.98C4640.38 2798.79 4656.68 2906.22 4655.27 3014.81L4601.1 7396.14Z" fill="#5B3ADF" fill-opacity="0.85"/>
<path d="M9513.65 6149.68C9513.32 6250.66 9496.78 6350.98 9467.47 6446.33C9438 6541.52 9395.77 6631.59 9343.8 6711.53C9291.67 6791.98 9229.75 6862.33 9161.06 6918.1C9092.36 6974.06 9016.55 7015.28 8937.59 7037.3L5563.58 7972.26C5478.31 7995.91 5396.88 7997.24 5322.39 7979.73C5247.74 7962.17 5180.19 7925.09 5123.24 7871.94C5065.79 7818.82 5019.28 7749.46 4986.5 7667.34C4953.89 7584.91 4935.01 7489.39 4933.68 7384.13L4879.07 3002.82C4877.75 2894.23 4894.15 2786.8 4925.11 2684.99C4956.23 2583.35 5001.91 2488 5058.54 2403.91C5115.13 2319.64 5183.03 2246.64 5258.51 2190.02C5333.66 2133.59 5416.59 2093.34 5503.67 2074.31L8953 1322.93C9033.97 1305.23 9111.08 1309.86 9181.1 1333.05C9250.95 1356.4 9313.7 1398.27 9366.35 1455.39C9418.98 1512.51 9461.19 1584.85 9490.16 1668.6C9519.3 1752.38 9535.01 1848.07 9534.52 1952L9513.65 6149.68Z" fill="#5B3ADF"/>
<path d="M6647.88 3259.18C6647.65 3243.9 6663.95 3234.01 6677.4 3241.29L8464.04 4208.37C8474.64 4214.1 8477.79 4227.84 8470.76 4237.63L6735.17 6652.06C6723.92 6667.71 6699.22 6659.96 6698.93 6640.69L6647.88 3259.18Z" fill="white"/>
</svg>
