<svg width="116" height="26" viewBox="0 0 116 26" fill="none" xmlns="http://www.w3.org/2000/svg">
<path d="M6.84467 15.7089C4.87501 15.0454 3.17477 14.4725 3.17477 12.7422C3.17477 11.4492 4.36166 10.5143 6.00001 10.5143C7.43326 10.4884 8.82546 11.0104 9.9102 11.9807C9.95466 12.0234 10.0079 12.0551 10.0659 12.0734C10.124 12.0917 10.1852 12.0961 10.2451 12.0863C10.3043 12.077 10.3607 12.0538 10.4099 12.0185C10.4591 11.9832 10.4999 11.9368 10.5291 11.8827L11.3119 10.4503C11.3532 10.3724 11.3694 10.2829 11.3583 10.1948C11.3472 10.1067 11.3092 10.0245 11.25 9.96021C10.3689 9.01026 8.51578 8 5.9636 8C2.6505 8 0.425993 9.91874 0.425993 12.7799C0.425993 16.3912 3.37137 17.3788 5.73787 18.1705C7.62379 18.8038 9.25122 19.3504 9.25122 20.9261C9.25122 22.8109 7.53642 23.4857 6.07283 23.4857C4.60924 23.4857 2.57405 22.7996 1.74395 21.6988C1.70796 21.6501 1.66171 21.6105 1.60872 21.5831C1.55572 21.5557 1.49737 21.5411 1.43813 21.5405C1.37903 21.5395 1.32042 21.5517 1.26635 21.5765C1.21229 21.6012 1.16406 21.6378 1.12502 21.6838L0.0946817 22.9315C0.0389196 23.0003 0.00598503 23.0857 0.00074031 23.1753C-0.00450441 23.2649 0.0182236 23.3539 0.0655604 23.4291C0.935704 24.7975 3.64079 26 5.85802 26C9.58981 26 12 23.9795 12 20.8507C12 17.4467 9.27306 16.5231 6.84467 15.7089Z" fill="white"/>
<path d="M24.3206 22.6196C24.2959 22.5592 24.2579 22.5052 24.2094 22.4618C24.161 22.4184 24.1034 22.3866 24.041 22.369C23.9782 22.3519 23.9124 22.3494 23.8485 22.3616C23.7846 22.3738 23.7243 22.4004 23.672 22.4395C22.9555 22.9678 22.0936 23.258 21.206 23.2697C18.8758 23.2697 17.8156 21.8051 17.8156 18.5155V10.4797H24.2313C24.3446 10.4797 24.4532 10.4343 24.5333 10.3536C24.6135 10.2728 24.6585 10.1632 24.6585 10.049V8.1849C24.6585 8.07065 24.6135 7.96108 24.5333 7.8803C24.4532 7.79951 24.3446 7.75413 24.2313 7.75413H17.8078V3.43077C17.8078 3.31652 17.7628 3.20695 17.6827 3.12617C17.6026 3.04538 17.4939 3 17.3806 3H15.4155C15.3043 3.00306 15.1986 3.04979 15.121 3.13025C15.0434 3.2107 15 3.31853 15 3.43077V18.821C15 23.6495 16.8835 25.9992 20.7555 25.9992C22.2233 26.0222 23.6581 25.56 24.841 24.6834C24.9123 24.6243 24.9632 24.544 24.9862 24.4538C25.0093 24.3637 25.0033 24.2686 24.9691 24.1821L24.3206 22.6196Z" fill="white"/>
<path d="M41.8103 9.86242C39.8287 8.63002 37.5567 7.98571 35.244 8.00024C29.9763 8.00024 26 11.8678 26 16.9982C26 22.3812 29.3598 26 34.3575 26C36.1838 25.9605 37.9441 25.2874 39.3552 24.0888V25.2762C39.3552 25.3852 39.3971 25.4897 39.4717 25.5668C39.5463 25.6438 39.6474 25.6871 39.7528 25.6871H41.5987C41.6512 25.6876 41.7033 25.6774 41.752 25.6569C41.8007 25.6365 41.8449 25.6063 41.8822 25.5681C41.9196 25.5299 41.9492 25.4845 41.9694 25.4344C41.9896 25.3843 42 25.3305 42 25.2762V10.1979C41.9973 10.1302 41.9786 10.0643 41.9455 10.0058C41.9125 9.94729 41.866 9.89807 41.8103 9.86242ZM35.2002 10.6163C36.6449 10.6022 38.0703 10.9597 39.3479 11.6567V21.0807C38.7447 21.7592 38.0179 22.3082 37.2092 22.6963C36.4005 23.0844 35.5256 23.304 34.6347 23.3424C30.9868 23.3424 28.7469 20.9299 28.7469 17.0435C28.7615 13.3945 31.5376 10.6239 35.2148 10.6239L35.2002 10.6163Z" fill="white"/>
<path d="M54.392 22.6196C54.3698 22.5592 54.3356 22.5052 54.292 22.4618C54.2484 22.4184 54.1965 22.3866 54.1404 22.369C54.0839 22.3519 54.0246 22.3494 53.9671 22.3616C53.9096 22.3738 53.8553 22.4004 53.8083 22.4395C53.1635 22.9678 52.3877 23.258 51.5889 23.2697C49.4917 23.2697 48.5375 21.8051 48.5375 18.5155V10.4797H54.3116C54.4136 10.4797 54.5114 10.4343 54.5835 10.3536C54.6556 10.2728 54.6961 10.1632 54.6961 10.049V8.1849C54.6961 8.07065 54.6556 7.96108 54.5835 7.8803C54.5114 7.79951 54.4136 7.75413 54.3116 7.75413H48.5375V3.43077C48.5375 3.3742 48.5276 3.31818 48.5083 3.26592C48.4889 3.21366 48.4606 3.16617 48.4249 3.12617C48.3892 3.08617 48.3468 3.05444 48.3002 3.03279C48.2535 3.01114 48.2035 3 48.1531 3H46.3845C46.2825 3 46.1847 3.04538 46.1126 3.12617C46.0405 3.20695 46 3.31652 46 3.43077V18.821C46 23.6495 47.6952 25.9992 51.1799 25.9992C52.5009 26.0222 53.7923 25.56 54.8569 24.6834C54.9211 24.6243 54.9669 24.544 54.9876 24.4538C55.0083 24.3637 55.003 24.2686 54.9722 24.1821L54.392 22.6196Z" fill="white"/>
<path d="M66.4798 8C60.7203 8 57 11.5321 57 16.9981C57 22.3812 60.9849 26 66.9153 26C69.6384 26 72.2068 25.0727 73.8146 23.5234C73.8757 23.4651 73.9168 23.3915 73.9327 23.3116C73.9487 23.2318 73.9387 23.1494 73.9041 23.0748L73.2284 21.6084C73.2008 21.5448 73.1559 21.4888 73.0982 21.4459C73.0405 21.403 72.9718 21.3746 72.8987 21.3634C72.8258 21.3493 72.7501 21.3526 72.6789 21.373C72.6077 21.3935 72.5433 21.4304 72.4917 21.4802C71.2706 22.6488 69.1744 23.365 67.0252 23.365C63.1096 23.365 60.5371 21.2503 60.2115 17.8086H74.4332C74.5394 17.8083 74.6421 17.7733 74.7232 17.7099C74.8043 17.6465 74.8587 17.5586 74.8769 17.4618C74.9661 16.9293 75.007 16.3909 74.999 15.8521C75.0072 11.2306 71.5026 8 66.4798 8ZM71.9951 15.4111H60.1342C60.6552 12.4444 62.9834 10.6237 66.2804 10.6237C69.5773 10.6237 71.7509 12.4029 71.9951 15.4111Z" fill="white"/>
<path d="M84.2039 0C81.3759 0 78 1.2332 78 7.09274V24.5975C78 24.6507 78.0109 24.7033 78.0322 24.7524C78.0534 24.8015 78.0845 24.846 78.1237 24.8834C78.1629 24.9208 78.2094 24.9504 78.2605 24.9704C78.3116 24.9904 78.3663 25.0005 78.4215 25H80.3605C80.4156 25.0005 80.4704 24.9904 80.5215 24.9704C80.5726 24.9504 80.6191 24.9208 80.6583 24.8834C80.6975 24.846 80.7286 24.8015 80.7498 24.7524C80.7711 24.7033 80.782 24.6507 80.782 24.5975V10.5671H86.779C86.8342 10.5671 86.8888 10.5566 86.9397 10.5361C86.9906 10.5157 87.0369 10.4857 87.0757 10.4479C87.1145 10.4102 87.1452 10.3654 87.166 10.3161C87.1867 10.2669 87.1972 10.2141 87.1967 10.161V8.40348C87.1972 8.35032 87.1867 8.29759 87.166 8.24833C87.1452 8.19908 87.1145 8.15428 87.0757 8.11651C87.0369 8.07875 86.9906 8.04878 86.9397 8.02832C86.8888 8.00786 86.8342 7.99733 86.779 7.99734H80.782V7.41397C80.782 5.33894 81.1652 2.57347 84.5028 2.57347C85.6099 2.52848 86.6972 2.86634 87.5684 3.52606C87.6171 3.56402 87.6741 3.591 87.7351 3.60506C87.7961 3.61911 87.8596 3.61987 87.9209 3.60729C87.9822 3.59426 88.0398 3.5683 88.0895 3.53127C88.1392 3.49424 88.1798 3.44707 88.2083 3.39314L88.9555 1.95318C88.9972 1.87277 89.0101 1.78131 88.9921 1.69311C88.974 1.60491 88.9261 1.52497 88.8559 1.46581C87.7293 0.53537 86.0432 0 84.2039 0Z" fill="white"/>
<path d="M103.594 8H101.727C101.619 8 101.516 8.04446 101.44 8.1236C101.364 8.20274 101.321 8.31007 101.321 8.42199V20.6905C100.321 21.9795 98.3504 23.3261 96.2655 23.3261C93.0922 23.3261 91.6752 21.6151 91.6752 17.7749V8.43734C91.6757 8.3821 91.6657 8.32732 91.6457 8.27614C91.6257 8.22496 91.5961 8.17841 91.5587 8.13917C91.5213 8.09994 91.4768 8.06879 91.4278 8.04754C91.3788 8.02628 91.3262 8.01534 91.273 8.01535H89.4059C89.2982 8.01535 89.195 8.05981 89.1189 8.13894C89.0428 8.21808 89 8.32542 89 8.43734V18.1854C89 24.6419 92.5793 26 95.5829 26C97.7091 25.9755 99.752 25.1368 101.321 23.6445V25.2634C101.321 25.3187 101.331 25.3734 101.352 25.4243C101.372 25.4753 101.402 25.5216 101.44 25.5605C101.478 25.5994 101.522 25.6301 101.572 25.6509C101.621 25.6717 101.674 25.6821 101.727 25.6816H103.594C103.701 25.6816 103.804 25.6377 103.88 25.5593C103.956 25.481 103.999 25.3747 104 25.2634V8.43734C104.002 8.38065 103.993 8.32412 103.973 8.27113C103.954 8.21815 103.924 8.1698 103.886 8.12897C103.848 8.08815 103.803 8.05568 103.753 8.03352C103.702 8.01136 103.648 7.99996 103.594 8Z" fill="white"/>
<path d="M115.981 24.3354L115.561 22.812C115.543 22.7484 115.513 22.6904 115.472 22.6429C115.431 22.5954 115.381 22.5597 115.325 22.5389C115.27 22.518 115.211 22.5126 115.153 22.523C115.096 22.5334 115.041 22.5594 114.994 22.5988C114.463 23.0478 113.826 23.3039 113.166 23.3338C112.119 23.3338 111.422 22.7701 111.422 20.0091V0.418918C111.422 0.307814 111.383 0.201261 111.314 0.122698C111.245 0.0441356 111.152 0 111.055 0H109.367C109.27 0 109.176 0.0441356 109.107 0.122698C109.039 0.201261 109 0.307814 109 0.418918V21.0488C109 24.3278 110.194 25.9996 112.549 25.9996C113.735 26.0145 114.894 25.594 115.854 24.8C115.916 24.7476 115.961 24.6745 115.984 24.5911C116.006 24.5077 116.005 24.4182 115.981 24.3354Z" fill="white"/>
</svg>
