<svg width="1230" height="1200" viewBox="0 0 1230 1200" fill="none"
    xmlns="http://www.w3.org/2000/svg">
    <path
        d="M562.423 633.167L447.835 747.616C440.859 754.565 432.417 759.865 423.128 763.13C413.839 766.394 403.937 767.54 394.148 766.483C313.623 757.852 239.469 718.689 186.94 657.05C134.41 595.412 107.501 515.985 111.748 435.111C115.996 354.237 151.076 278.066 209.773 222.268C268.469 166.47 346.318 135.29 427.303 135.141H1060.31C1060.31 165.819 1054.27 196.198 1042.53 224.541C1030.79 252.885 1013.58 278.638 991.886 300.331C970.193 322.024 944.44 339.232 916.096 350.973C887.753 362.713 857.375 368.755 826.696 368.755H423.558C417.19 368.89 410.999 370.87 405.736 374.457C400.473 378.044 396.365 383.082 393.911 388.959C391.457 394.837 390.763 401.3 391.914 407.564C393.064 413.828 396.009 419.624 400.391 424.246L562.423 586.833C568.539 592.992 571.972 601.32 571.972 610C571.972 618.68 568.539 627.008 562.423 633.167Z"
        fill="white" />
    <path
        d="M978.601 544.383C1023.09 588.627 1053.42 645.093 1065.76 706.611C1078.09 768.129 1071.87 831.924 1047.87 889.898C1023.88 947.871 983.204 997.408 931.004 1032.22C878.805 1067.03 817.439 1085.55 754.697 1085.41H121.69C121.58 1054.66 127.548 1024.19 139.249 995.747C150.951 967.306 168.156 941.458 189.876 919.685C211.597 897.913 237.405 880.647 265.818 868.878C294.231 857.109 324.689 851.069 355.443 851.106H757.749C764.117 850.972 770.308 848.991 775.571 845.404C780.834 841.818 784.942 836.78 787.396 830.902C789.85 825.025 790.544 818.562 789.394 812.297C788.243 806.033 785.298 800.238 780.916 795.616L619.717 633.167C613.6 627.008 610.168 618.68 610.168 610C610.168 601.32 613.6 592.992 619.717 586.833L734.166 472.245C741.163 465.286 749.628 459.979 758.942 456.715C768.255 453.45 778.18 452.31 787.991 453.378C860.088 460.943 927.389 493.075 978.601 544.383Z"
        fill="white" />
</svg>
    