<svg width="330" height="57" viewBox="0 0 330 57" fill="none" xmlns="http://www.w3.org/2000/svg">
<path d="M1.3684 17.2997C0.396265 31.0416 1.44514 47.464 3.37738 50.0542C6.03485 53.6167 53.6754 53.5619 56.9515 49.2869C59.3159 46.2016 59.9685 30.798 58.6578 17.2997M1.3684 17.2997C1.73328 12.1418 2.38289 12.3545 3.37738 11.1613C4.59038 9.70587 10.4327 8.80643 17.826 8.35967C32.6431 7.4643 53.6896 8.38713 56.1842 10.2968C57.2248 11.0934 58.1524 12.0948 58.6578 17.2997M1.3684 17.2997C19.1414 14.5045 56.7815 16.2474 58.6578 17.2997" stroke="white" style="stroke:white;stroke-opacity:1;" stroke-width="2" stroke-linecap="round" stroke-linejoin="round"/>
<path d="M8.89062 24.0411C8.89062 24.0411 13.9311 26.0883 14.2618 27.3277C12.5677 28.9439 8.89062 30.3988 8.89062 30.3988" stroke="white" style="stroke:white;stroke-opacity:1;" stroke-width="2" stroke-linecap="round" stroke-linejoin="round"/>
<path d="M41.3281 27.2989C41.3281 27.1492 41.3772 27.0253 41.4754 26.9271C41.5737 26.8289 41.6976 26.7798 41.8473 26.7798H44.0782C44.2278 26.7798 44.3518 26.8289 44.45 26.9271C44.5482 27.0253 44.5973 27.1492 44.5973 27.2989V28.3582C44.5973 28.5079 44.5482 28.6318 44.45 28.73C44.3518 28.8283 44.2278 28.8774 44.0782 28.8774H41.8473C41.6976 28.8774 41.5737 28.8283 41.4754 28.73C41.3772 28.6318 41.3281 28.5079 41.3281 28.3582V27.2989Z" fill="white" style="fill:white;fill-opacity:1;"/>
<path d="M35.1172 27.2989C35.1172 27.1492 35.1663 27.0253 35.2645 26.9271C35.3627 26.8289 35.4867 26.7798 35.6363 26.7798H37.8672C38.0169 26.7798 38.1408 26.8289 38.239 26.9271C38.3373 27.0253 38.3864 27.1492 38.3864 27.2989V28.3582C38.3864 28.5079 38.3373 28.6318 38.239 28.73C38.1408 28.8283 38.0169 28.8774 37.8672 28.8774H35.6363C35.4867 28.8774 35.3627 28.8283 35.2645 28.73C35.1663 28.6318 35.1172 28.5079 35.1172 28.3582V27.2989Z" fill="white" style="fill:white;fill-opacity:1;"/>
<path d="M33.1094 27.2989C33.1094 27.1492 33.1585 27.0253 33.2567 26.9271C33.3549 26.8289 33.4789 26.7798 33.6285 26.7798H35.8594C36.0091 26.7798 36.133 26.8289 36.2312 26.9271C36.3294 27.0253 36.3786 27.1492 36.3786 27.2989V28.3582C36.3786 28.5079 36.3294 28.6318 36.2312 28.73C36.133 28.8283 36.0091 28.8774 35.8594 28.8774H33.6285C33.4789 28.8774 33.3549 28.8283 33.2567 28.73C33.1585 28.6318 33.1094 28.5079 33.1094 28.3582V27.2989Z" fill="white" style="fill:white;fill-opacity:1;"/>
<path d="M31.1016 27.2989C31.1016 27.1492 31.1507 27.0253 31.2489 26.9271C31.3471 26.8289 31.471 26.7798 31.6207 26.7798H33.8516C34.0013 26.7798 34.1252 26.8289 34.2234 26.9271C34.3216 27.0253 34.3707 27.1492 34.3707 27.2989V28.3582C34.3707 28.5079 34.3216 28.6318 34.2234 28.73C34.1252 28.8283 34.0013 28.8774 33.8516 28.8774H31.6207C31.471 28.8774 31.3471 28.8283 31.2489 28.73C31.1507 28.6318 31.1016 28.5079 31.1016 28.3582V27.2989Z" fill="white" style="fill:white;fill-opacity:1;"/>
<path d="M22.8828 27.2919C22.8828 27.1422 22.9319 27.0183 23.0301 26.9201C23.1284 26.8218 23.2523 26.7727 23.402 26.7727H27.6393C27.7889 26.7727 27.9129 26.8218 28.0111 26.9201C28.1093 27.0183 28.1584 27.1422 28.1584 27.2919V28.3582C28.1584 28.5079 28.1093 28.6318 28.0111 28.73C27.9129 28.8282 27.7889 28.8774 27.6393 28.8774H23.402C23.2523 28.8774 23.1284 28.8282 23.0301 28.73C22.9319 28.6318 22.8828 28.5079 22.8828 28.3582V27.2919Z" fill="white" style="fill:white;fill-opacity:1;"/>
<path d="M20.875 27.2989C20.875 27.1492 20.9241 27.0253 21.0223 26.9271C21.1205 26.8289 21.2445 26.7798 21.3941 26.7798H23.625C23.7747 26.7798 23.8986 26.8289 23.9969 26.9271C24.0951 27.0253 24.1442 27.1492 24.1442 27.2989V28.3582C24.1442 28.5079 24.0951 28.6318 23.9969 28.73C23.8986 28.8283 23.7747 28.8774 23.625 28.8774H21.3941C21.2445 28.8774 21.1205 28.8283 21.0223 28.73C20.9241 28.6318 20.875 28.5079 20.875 28.3582V27.2989Z" fill="white" style="fill:white;fill-opacity:1;"/>
<path d="M280.401 16.6C281.104 14.8117 303.431 0.946488 305.291 1.00016C307.151 1.05382 327.155 15.4019 328.152 16.6C329.15 17.7981 328.739 37.8866 328.152 39.3807C327.566 40.8749 307.209 52.7354 305.291 52.6282C303.373 52.521 281.398 41.8409 280.401 39.3807C279.403 36.9206 279.697 18.3883 280.401 16.6Z" stroke="white" style="stroke:white;stroke-opacity:1;" stroke-width="2" stroke-linecap="round" stroke-linejoin="round"/>
<path d="M314.296 20.6212C314.296 20.6212 321.106 25.8657 320.913 27.08C320.72 28.2943 312.477 33.6654 312.477 33.6654" stroke="white" style="stroke:white;stroke-opacity:1;" stroke-width="2" stroke-linecap="round" stroke-linejoin="round"/>
<path d="M294.829 20.6212C294.829 20.6212 287.224 25.9753 287.377 27.08C287.531 28.1847 294.829 33.6654 294.829 33.6654" stroke="white" style="stroke:white;stroke-opacity:1;" stroke-width="2" stroke-linecap="round" stroke-linejoin="round"/>
<path d="M308.966 17.6616C307.332 19.5352 299.539 36.5154 299.539 36.5154" stroke="white" style="stroke:white;stroke-opacity:1;" stroke-width="2" stroke-linecap="round" stroke-linejoin="round"/>
<path d="M60.1328 32.6241C78.8753 29.325 174.846 21.553 171.502 39.9683C168.159 58.3837 128.533 59.4799 138.015 47.751C147.496 36.022 165.199 36.0221 196.44 36.5702C227.68 37.1183 259.252 32.6968 279.254 28.7876" stroke="white" style="stroke:white;stroke-opacity:1;" stroke-width="2" stroke-linecap="round" stroke-linejoin="round" stroke-dasharray="4 4"/>
<path d="M59.3016 29.3941C55.66 29.2239 55.6598 35.1119 59.3016 34.9417C62.9434 34.7714 62.9432 29.5642 59.3016 29.3941Z" fill="#080027" stroke="white" style="fill:#080027;fill:color(display-p3 0.0314 0.0000 0.1529);fill-opacity:1;stroke:white;stroke-opacity:1;" stroke-width="2" stroke-linecap="round" stroke-linejoin="round"/>
<path d="M279.739 26.6537C276.097 26.4835 276.097 32.3715 279.739 32.2013C283.381 32.031 283.381 26.8238 279.739 26.6537Z" fill="#080027" stroke="white" style="fill:#080027;fill:color(display-p3 0.0314 0.0000 0.1529);fill-opacity:1;stroke:white;stroke-opacity:1;" stroke-width="2" stroke-linecap="round" stroke-linejoin="round"/>
<path d="M241.812 31.0946L245.86 33.8953L243.216 38.471" stroke="white" style="stroke:white;stroke-opacity:1;" stroke-width="2" stroke-linecap="round" stroke-linejoin="round"/>
<path d="M191.844 32.7885L195.297 36.2962L191.844 40.2972" stroke="white" style="stroke:white;stroke-opacity:1;" stroke-width="2" stroke-linecap="round" stroke-linejoin="round"/>
<path d="M161.484 55.3805L156.819 53.8128L158.09 48.683" stroke="white" style="stroke:white;stroke-opacity:1;" stroke-width="2" stroke-linecap="round" stroke-linejoin="round"/>
<path d="M148.023 36.405L152.194 39.0195L149.759 43.7103" stroke="white" style="stroke:white;stroke-opacity:1;" stroke-width="2" stroke-linecap="round" stroke-linejoin="round"/>
<path d="M96.9219 25.6323L100.857 28.5888L98.0359 33.0578" stroke="white" style="stroke:white;stroke-opacity:1;" stroke-width="2" stroke-linecap="round" stroke-linejoin="round"/>
<path d="M68.6321 28.3173L67.3702 25.9232C64.1015 27.0405 60.822 23.409 60.8058 22.1026L57.8766 22.1311C57.915 25.2307 53.2094 26.9931 51.3848 25.8041L49.9122 28.4999C52.8735 30.7623 51.5029 35.3359 50.0046 35.9589L51.542 38.4878C54.4579 37.1773 58.0963 39.8575 58.1237 42.0734L61.053 42.0449C61.0207 39.4447 65.812 37.4509 67.524 38.332L68.7245 35.7763C66.9499 34.596 66.8185 30.1652 68.6321 28.3173Z" fill="#080027" stroke="white" style="fill:#080027;fill:color(display-p3 0.0314 0.0000 0.1529);fill-opacity:1;stroke:white;stroke-opacity:1;" stroke-width="2" stroke-linecap="round" stroke-linejoin="round"/>
<path d="M59.4421 30.4638C57.1652 30.3578 57.1651 34.0252 59.4421 33.9191C61.7191 33.8131 61.719 30.5698 59.4421 30.4638Z" fill="#080027" stroke="white" style="fill:#080027;fill:color(display-p3 0.0314 0.0000 0.1529);fill-opacity:1;stroke:white;stroke-opacity:1;" stroke-width="2" stroke-linecap="round" stroke-linejoin="round"/>
</svg>
